<?xml version="1.0" encoding="UTF-8" standalone="no"?>
<!DOCTYPE svg PUBLIC "-//W3C//DTD SVG 1.1//EN" "http://www.w3.org/Graphics/SVG/1.1/DTD/svg11.dtd">
<svg width="100%" height="100%" viewBox="0 0 918 431" version="1.1" xmlns="http://www.w3.org/2000/svg" xmlns:xlink="http://www.w3.org/1999/xlink" xml:space="preserve" xmlns:serif="http://www.serif.com/" style="fill-rule:evenodd;clip-rule:evenodd;stroke-linejoin:round;stroke-miterlimit:2;">
    <g transform="matrix(1,0,0,1,-1101,-39)">
        <g id="Plan-de-travail1" serif:id="Plan de travail1" transform="matrix(1,0,0,1,-0.528885,-0.0552494)">
            <rect x="1101.53" y="39.055" width="917.038" height="430.422" style="fill:none;"/>
            <g id="rr7" transform="matrix(0.771687,0,0,0.771687,1039.16,-162.445)">
                <path d="M1156.31,317.818L1156.31,762.182L675,645.88L193.687,762.182L193.687,317.818L675,434.12L1156.31,317.818ZM656.281,540.134C656.281,529.817 647.9,521.453 637.562,521.453C627.224,521.453 618.843,529.817 618.843,540.134C618.843,550.452 627.224,558.816 637.562,558.816C647.9,558.816 656.281,550.452 656.281,540.134ZM768.595,577.498C768.595,567.18 760.215,558.816 749.876,558.816C739.538,558.816 731.157,567.18 731.157,577.498C731.157,587.815 739.538,596.179 749.876,596.179C760.215,596.179 768.595,587.815 768.595,577.498ZM618.843,577.498C618.843,567.18 610.462,558.816 600.124,558.816C589.786,558.816 581.405,567.18 581.405,577.498C581.405,587.815 589.786,596.179 600.124,596.179C610.462,596.179 618.843,587.815 618.843,577.498ZM999.675,580.502C1004.72,577.622 1009.31,574.022 1013.45,569.702C1020.47,562.862 1025.82,554.852 1029.51,545.672C1033.2,536.492 1034.95,527.132 1034.78,517.592C1034.95,507.872 1033.2,498.467 1029.51,489.377C1025.82,480.287 1020.56,472.232 1013.72,465.212C1000.39,451.892 984.735,445.322 966.735,445.502L802.035,445.502L802.035,634.502L874.395,634.502L874.395,589.412L924.075,589.412L957.285,634.502L1039.37,634.502L999.675,580.502ZM952.425,527.312L874.395,527.312L874.395,507.602L952.425,507.602C955.305,507.602 957.69,508.547 959.58,510.437C961.47,512.327 962.415,514.667 962.415,517.457C962.415,520.247 961.47,522.587 959.58,524.477C957.69,526.367 955.305,527.312 952.425,527.312ZM350.325,580.502L310.635,634.502L392.715,634.502L425.925,589.412L475.605,589.412L475.605,634.502L547.965,634.502L547.965,445.502L383.265,445.502C365.265,445.322 349.605,451.892 336.285,465.212C329.445,472.232 324.18,480.287 320.49,489.377C316.8,498.467 315.045,507.872 315.225,517.592C315.045,527.132 316.8,536.492 320.49,545.672C324.18,554.852 329.535,562.862 336.555,569.702C340.695,574.022 345.285,577.622 350.325,580.502ZM397.575,527.312C394.695,527.312 392.31,526.367 390.42,524.477C388.53,522.587 387.585,520.247 387.585,517.457C387.585,514.667 388.53,512.327 390.42,510.437C392.31,508.547 394.695,507.602 397.575,507.602L475.605,507.602L475.605,527.312L397.575,527.312ZM731.157,540.134C731.157,529.815 722.778,521.453 712.438,521.453C707.268,521.453 702.588,519.36 699.204,515.979C695.816,512.601 693.719,507.931 693.719,502.771C693.719,492.451 685.341,484.089 675,484.089C669.83,484.089 665.15,486.178 661.766,489.559C658.378,492.941 656.281,497.611 656.281,502.771C656.281,507.931 658.378,512.601 661.766,515.979C665.15,519.36 669.83,521.453 675,521.453C685.341,521.453 693.719,529.815 693.719,540.134C693.719,545.294 691.626,549.965 688.239,553.343C684.85,556.724 680.171,558.816 675,558.816C669.83,558.816 665.15,560.904 661.766,564.286C658.378,567.668 656.281,572.338 656.281,577.498C656.281,582.657 658.378,587.328 661.766,590.706C665.15,594.087 669.83,596.18 675,596.18C680.171,596.18 684.85,594.087 688.239,590.706C691.626,587.328 693.719,582.657 693.719,577.498C693.719,572.338 695.816,567.668 699.204,564.286C702.588,560.904 707.268,558.816 712.438,558.816C717.608,558.816 722.288,556.724 725.676,553.343C729.065,549.965 731.157,545.294 731.157,540.134Z" style="fill:rgb(255,0,0);"/>
            </g>
        </g>
    </g>
</svg>
